{"title":"PBS Nova - Supersonic Spies (1998) VHSrip.avi","uid":6678085,"size":733351936,"categoryP":"video","categoryS":"tv_shows","magnet":"?xt=urn:btih:02ed5c7165aacb55ef9f3b6bdf7605c51e052937&amp;dn=PBS+Nova+-+Supersonic+Spies+%281998%29+VHSrip.avi&amp;tr=udp%3A%2F%2Ftracker.openbittorrent.com%3A80&amp;tr=udp%3A%2F%2Fopen.demonii.com%3A1337&amp;tr=udp%3A%2F%2Ftracker.coppersurfer.tk%3A6969&amp;tr=udp%3A%2F%2Fexodus.desync.com%3A6969","seeders":5,"leechers":0,"uploader":"V100","files":-1,"time":1316099500,"description":"Documentary about the history, competition, industrial espionage and conspiracy (TU-144 crash) between the Concorde SST and Soviet Tupolev Tu-144 (Concordski). The Boeing 2707 SST is mentioned.\n\nVHSrip (public library tape), 56 minutes, English, 4:3, XVID, color, original air date-January 27, 1998.\n\nPlease help keep me seeded.\n\n\n\nGeneral\nFormat : AVI \nFormat/Info : Audio Video Interleave \nFile size : 699 MiB \nDuration : 56mn 9s \nOverall bit rate : 1 741 Kbps \nWriting application : VirtualDubMod 1.5.4.1 (build 2178/release) \nWriting library : VirtualDubMod build 2178/release \n\nVideo  \nFormat : MPEG-4 Visual \nFormat profile : Advanced Simple@L5 \nFormat settings, BVOP : 1 \nFormat settings, QPel : No \nFormat settings, GMC : No warppoints \nFormat settings, Matrix : Custom \nCodec ID : XVID \nCodec ID/Hint : XviD \nDuration : 56mn 9s \nBit rate : 1 612 Kbps \nWidth : 544 pixels \nHeight : 416 pixels \nDisplay aspect ratio : 4:3 \nFrame rate : 29.970 fps \nColor space : YUV \nChroma subsampling : 4:2:0 \nBit depth : 8 bits \nScan type : Progressive \nCompression mode : Lossy \nBits/(Pixel*Frame) : 0.238 \nStream size : 648 MiB (93%) \nWriting library : XviD 1.2.1 (UTC 2008-12-04) \n\nAudio  \nFormat : MPEG Audio \nFormat version : Version 1 \nFormat profile : Layer 3 \nMode : Joint stereo \nMode extension : MS Stereo \nCodec ID : 55 \nCodec ID/Hint : MP3 \nDuration : 56mn 9s \nBit rate mode : Variable \nBit rate : 115 Kbps \nNominal bit rate : 128 Kbps \nChannel(s) : 2 channels \nSampling rate : 48.0 KHz \nCompression mode : Lossy \nStream size : 46.0 MiB (7%) \nAlignment : Aligned on interleaves \nInterleave, duration : 24 ms (0.72 video frame) \nInterleave, preload duration : 482 ms \nWriting library : LAME3.98r \nEncoding settings : -m j -V 4 -q 2 -lowpass 17 --abr 128 \n","torrent":{"xt":"urn:btih:02ed5c7165aacb55ef9f3b6bdf7605c51e052937","amp;dn":"PBS+Nova+-+Supersonic+Spies+%281998%29+VHSrip.avi","amp;tr":["udp%3A%2F%2Ftracker.openbittorrent.com%3A80","udp%3A%2F%2Fopen.demonii.com%3A1337","udp%3A%2F%2Ftracker.coppersurfer.tk%3A6969","udp%3A%2F%2Fexodus.desync.com%3A6969"],"infoHash":"02ed5c7165aacb55ef9f3b6bdf7605c51e052937","infoHashBuffer":{"type":"Buffer","data":[2,237,92,113,101,170,203,85,239,159,59,107,223,118,5,197,30,5,41,55]},"announce":[],"urlList":[]}}